<mxfile host="app.diagrams.net" agent="Mozilla/5.0 (X11; Linux x86_64) AppleWebKit/537.36 (KHTML, like Gecko) Chrome/134.0.0.0 Safari/537.36" version="26.1.1">
  <diagram name="Page-1" id="flzobUv6Z9D_ssf-IEz5">
    <mxGraphModel dx="1195" dy="618" grid="1" gridSize="10" guides="1" tooltips="1" connect="1" arrows="1" fold="1" page="1" pageScale="1" pageWidth="850" pageHeight="1100" math="0" shadow="0">
      <root>
        <mxCell id="0" />
        <mxCell id="1" parent="0" />
        <mxCell id="LHtPzqZPA2eFAMqI0sIO-1" value="S3" style="shape=cylinder3;whiteSpace=wrap;html=1;boundedLbl=1;backgroundOutline=1;size=15;fontSize=12;verticalAlign=top;" parent="1" vertex="1">
          <mxGeometry x="240" y="160" width="119" height="130" as="geometry" />
        </mxCell>
        <mxCell id="LHtPzqZPA2eFAMqI0sIO-2" value="HPC&lt;div&gt;Cluster&lt;/div&gt;" style="whiteSpace=wrap;html=1;aspect=fixed;verticalAlign=bottom;" parent="1" vertex="1">
          <mxGeometry x="390" y="280" width="160" height="160" as="geometry" />
        </mxCell>
        <mxCell id="LHtPzqZPA2eFAMqI0sIO-3" value="User" style="shape=umlActor;verticalLabelPosition=bottom;verticalAlign=top;html=1;outlineConnect=0;" parent="1" vertex="1">
          <mxGeometry x="50" y="340" width="30" height="60" as="geometry" />
        </mxCell>
        <mxCell id="LHtPzqZPA2eFAMqI0sIO-9" value="" style="endArrow=classic;html=1;rounded=0;entryX=0;entryY=0.75;entryDx=0;entryDy=0;" parent="1" edge="1">
          <mxGeometry width="50" height="50" relative="1" as="geometry">
            <mxPoint x="120" y="340" as="sourcePoint" />
            <mxPoint x="240" y="339.9999999999999" as="targetPoint" />
          </mxGeometry>
        </mxCell>
        <mxCell id="LHtPzqZPA2eFAMqI0sIO-10" value="" style="endArrow=classic;html=1;rounded=0;exitX=0;exitY=0.25;exitDx=0;exitDy=0;" parent="1" edge="1">
          <mxGeometry width="50" height="50" relative="1" as="geometry">
            <mxPoint x="240" y="359.65999999999985" as="sourcePoint" />
            <mxPoint x="120" y="359.65999999999997" as="targetPoint" />
          </mxGeometry>
        </mxCell>
        <mxCell id="LHtPzqZPA2eFAMqI0sIO-11" value="" style="endArrow=classic;html=1;rounded=0;entryX=0;entryY=0.5;entryDx=0;entryDy=0;" parent="1" target="LHtPzqZPA2eFAMqI0sIO-32" edge="1">
          <mxGeometry width="50" height="50" relative="1" as="geometry">
            <mxPoint x="120" y="380" as="sourcePoint" />
            <mxPoint x="240" y="200" as="targetPoint" />
            <Array as="points">
              <mxPoint x="190" y="380" />
              <mxPoint x="190" y="255" />
            </Array>
          </mxGeometry>
        </mxCell>
        <mxCell id="LHtPzqZPA2eFAMqI0sIO-15" value="" style="endArrow=classic;html=1;rounded=0;entryX=0.5;entryY=0;entryDx=0;entryDy=0;" parent="1" target="LHtPzqZPA2eFAMqI0sIO-17" edge="1">
          <mxGeometry width="50" height="50" relative="1" as="geometry">
            <mxPoint x="340" y="250" as="sourcePoint" />
            <mxPoint x="470" y="300" as="targetPoint" />
            <Array as="points">
              <mxPoint x="470" y="250" />
            </Array>
          </mxGeometry>
        </mxCell>
        <mxCell id="LHtPzqZPA2eFAMqI0sIO-16" value="Storage" style="shape=cylinder3;whiteSpace=wrap;html=1;boundedLbl=1;backgroundOutline=1;size=15;fontSize=12;" parent="1" vertex="1">
          <mxGeometry x="600" y="280" width="120" height="160" as="geometry" />
        </mxCell>
        <mxCell id="LHtPzqZPA2eFAMqI0sIO-17" value="data transfer job" style="ellipse;whiteSpace=wrap;html=1;aspect=fixed;" parent="1" vertex="1">
          <mxGeometry x="440" y="319" width="60" height="60" as="geometry" />
        </mxCell>
        <mxCell id="LHtPzqZPA2eFAMqI0sIO-21" value="" style="endArrow=classic;html=1;rounded=0;" parent="1" edge="1">
          <mxGeometry width="50" height="50" relative="1" as="geometry">
            <mxPoint x="500" y="349" as="sourcePoint" />
            <mxPoint x="600" y="349" as="targetPoint" />
          </mxGeometry>
        </mxCell>
        <mxCell id="LHtPzqZPA2eFAMqI0sIO-22" value="1" style="ellipse;whiteSpace=wrap;html=1;aspect=fixed;fontSize=10;" parent="1" vertex="1">
          <mxGeometry x="100" y="333" width="14" height="14" as="geometry" />
        </mxCell>
        <mxCell id="LHtPzqZPA2eFAMqI0sIO-23" value="3" style="ellipse;whiteSpace=wrap;html=1;aspect=fixed;fontSize=10;" parent="1" vertex="1">
          <mxGeometry x="330" y="329" width="14" height="14" as="geometry" />
        </mxCell>
        <mxCell id="LHtPzqZPA2eFAMqI0sIO-25" value="2" style="ellipse;whiteSpace=wrap;html=1;aspect=fixed;fontSize=10;" parent="1" vertex="1">
          <mxGeometry x="306" y="306" width="14" height="14" as="geometry" />
        </mxCell>
        <mxCell id="LHtPzqZPA2eFAMqI0sIO-26" value="4" style="ellipse;whiteSpace=wrap;html=1;aspect=fixed;fontSize=10;" parent="1" vertex="1">
          <mxGeometry x="100" y="353" width="14" height="14" as="geometry" />
        </mxCell>
        <mxCell id="LHtPzqZPA2eFAMqI0sIO-27" value="5" style="ellipse;whiteSpace=wrap;html=1;aspect=fixed;fontSize=10;" parent="1" vertex="1">
          <mxGeometry x="100" y="373" width="14" height="14" as="geometry" />
        </mxCell>
        <mxCell id="LHtPzqZPA2eFAMqI0sIO-29" value="6" style="ellipse;whiteSpace=wrap;html=1;aspect=fixed;fontSize=10;" parent="1" vertex="1">
          <mxGeometry x="380" y="230" width="14" height="14" as="geometry" />
        </mxCell>
        <mxCell id="LHtPzqZPA2eFAMqI0sIO-30" value="7" style="ellipse;whiteSpace=wrap;html=1;aspect=fixed;fontSize=10;" parent="1" vertex="1">
          <mxGeometry x="510" y="329" width="14" height="14" as="geometry" />
        </mxCell>
        <mxCell id="LHtPzqZPA2eFAMqI0sIO-31" value="" style="group" parent="1" vertex="1" connectable="0">
          <mxGeometry x="240" y="329" width="80" height="80" as="geometry" />
        </mxCell>
        <mxCell id="LHtPzqZPA2eFAMqI0sIO-4" value="" style="whiteSpace=wrap;html=1;aspect=fixed;" parent="LHtPzqZPA2eFAMqI0sIO-31" vertex="1">
          <mxGeometry width="80" height="80" as="geometry" />
        </mxCell>
        <mxCell id="LHtPzqZPA2eFAMqI0sIO-6" value="" style="shape=image;verticalLabelPosition=bottom;labelBackgroundColor=default;verticalAlign=top;aspect=fixed;imageAspect=0;image=data:image/gif,R0lGODdhBQL8AbMAAAAAAOxnGXl6eoKDg/GPVZeXl7m5ufrXwtzd3ff29v///wAAAAAAAAAAAAAAAAAAACH5BAkAAAsALAAAAAAFAvwBAAT/cMlJq7046827/2AojmRpnmiqrmzrvnAsz3Rt33iu73zv/8CgcEgsGo/IpHLJbDqf0OgwIa1ar9isFkY4bL/gsHjcJAS85LR6zW6fzGe3fE6vi+Fxu37P7wvxeX6Cg4SFbwGIiGiGjI2OjICKj5OUlXKRkpaam5xWmJmdoaKjQQmfoKSpqqsvpomviYuss7S1Hq6wsLK2vL21uLmvu77ExZ3AwbHGy8yVyMmozdLTfM/QgdTZ2m3W18Pb4OFZ3d7i5udV5OXo7O1I6uvu8vM98PH0+Pky9vf6/v8n+PUDSLAgB4EDDSpcuABhQoYQ/Tl8GLGivIkULWo0hzHjxo/Z/zp6BEly2YFT11J+K8nS2IGUMJOtbEnT1suYOIXV3OnrZs6fM3kKDeXzZ86gQ5NWKmoUJ1KlUBkxbRrzadSrfqZShWkVq9c6Wreq/Ep2UFixI8uqTXMWLbSua+NuaetWpty7a+jWDQYXr18nevfm6vu3MJLAgnUZXlwFcWKdjCM3cfxYmeTLhys3JYy58wzKmqN5Hq0DdGhspFPbMH2as+rXI1i3hk0bhuzZtXOruI1bt28SvHv/Hu4huHDiyDEYP568uYTlzJ0jhx5d+m/q1a3nxp5dO2zu3b2nBh9evGfy5c1fRp9ePWP27d0Xhh9fPl769e3HxZ9ff1n+/fnnFf+AAQoYFUqnaeaagUohmGBlCzIolIMPPhahhDVRWGFiF2LIkoYbCtahhyCBGOJeI5KokYkn1pWiihGx2KJbL8K4kIwzolWjjQXhmKNYO/L4j48/bhWkkPkQWSRVRyI5j5JLbubkTlBGaVSTU6JTpZVAZfkhly1i6SU4W4J51JgflWmmU2iuuGaYbUYk0ptGxsnQnHQyaadCeOYp5Z4E9ennlYACJOigXRaqz6GInqkoPow2yuaj80QqaVWUXqTmpZhmyo6lnHLlKTqghjrWqOKUampaqBKj6qpvtbrNq7DaJSs1tNbK163T5KrrYLw24+uvigVrzLDEQmasL8gma9n/srw066xo0K5C4LSoVavKtdiKqS0d3Hb7rbXY/ujtuGyEW+656LJVbpHstiuGuuvig4AA+Oar77789uvvvwAHLPDABBds8MEIJ6xwwgVQ0QG94tq78MQUV2zxxRhnrHG+DRf3rrn63LvxyCSXbPLJI3f88Mc5xquKyCjHLPPMNJusMgcQT+vyyzX37PPPQAN88wY5O7szz0EnrfTSJQ+9AcszHo0001RXbXXBTj8NdYhST33112BfnbXWWz/Ytddhp622z2OTXXZoZ6O99tx0k9y2229buBDMdfftd8V34503igzx/ffhiA8cuOCD6wiR4YlHLjm+izPeuJ6PT665/+SVW355oplvLrrfnXv+eacRQT766l+XbvrprIbM+uxgu/467LtqpDrtvP9s++24J9LFR7v3brzMvwMfPAEOb1T88dDb3bwKwcPEPEnPR6/9xclzUP0112O//fgpT7/C98mELz757FvcfQfo56L++u3Xz7D5LMT/yvz02++/4vjLn/4CwL/+/e+A/XrfBwZYQAMi8IECUOAC49dAB0LwfxKc4PcqaMEL1i+DGlxeAFmSPQ9qD4QhhB0HS1JCEx4PhSn83ApZ6EL7wTCGjZshDWvIvhviMG863CEPt+fDH5YtiEIcIvSKaESoITGJSuwdE5v4sSdCMYqzmyIVy2XFK/9icXRa3OK0CFCWFn7xcGEUY7LIWMYzsi6NavwVG9voRtHBMY61miMd6zi5O+JxVXrcIx8T58c/hiqQghzk3wppyEshMpGKrBsjG9moR0IykmubJCUHZclLYjJsmtxknjp5AQOEchtm/KTSTukBLoLAAJQbYQdVWTVWtnKMr9SXLaWRSlqyTZZCwOUHYLmvXTKjl76kmTHht8ZcJhCYFkFmMmO2TGbK0Zn+qqYvpDlNm0FzCMQipQWIKbRvFq6bTNOmNWElzgqQM2DqrAU30amxeHovj9gEoBfpOTN73nNVfXknwfwpN34iz5xFgFVAFUZQUszToBNr6AY2VaGFLkz/ooZIgAE28FCI3s8TobJoRBEajgQUoAAc9ehBr0DR+gj0oiTVhkkjmFKVngyjHGipgvIJuJj2qgCUq6lNpZcFneptmBvDqR1mGlQNdHSo5dSCUUXEU4wpdQ5MbWoGngrVZ25hqi6qasauyg2g6lKoXXWfT5MAVsch9aZrjZZZz+rUtHIvrkhoa53eijKykiGrdN2qXXsaBr3+yQMv9eas5lpMtA4WYX71gGFB14HEwjUkjG1sXR/70Tu8SaQ1i+w4MqtZwXL2YKKV7JpA27PUpoO0pcUAV4fq2g5MVlR8BVptnwDYbDr2tFFNw21jtwDLthavmuitbzcLXHgitwxc/2Jt0narBOUu17TN/Rd1bWsl6a7yuY6w7nVlm13tghe6S/Lu0rZLBPGO9wKz5Sd7uQsvsVJtvkBw73stEF904jen9c1t7c7rB/3utwL9neZ/Adwy+4qNwHsw8IEpkGBfLpjBcBKw2i5sAwlPeAIVViWHJxo1B4MSwliF7UB/e9oRk/hE6s0kissaURY/1sUv3lCM54ZjFnhYaDa2a481MNkd023IKPgxkJnb4hlHwbBGlqSTw6DkJWOXs0gmckVNvMgpb6HKViZvk/3Q1ih3mRFgDjN8x0zmBJkZjV62QprVzF8sx/nJLpXinaEwZzoj+MZ7hoJR3xy5LGugz36m8P9gDU3foyI2eoy2AKITDWIhBxrPjq4sES99hElTWgIhVmKkG004Db+Q0+1VsfuCTM9RkxotVjSu8RjtaXiyupuufvVWYm1DVP+g1rZmMkRzreum8Np/QwZ2sK9sUGIX+yfHxqCvdaDsZYt52NOWApSifcARV9vaa8Z2JZTEbQRe+NvgrnOzs10FIpX7gf9Fd7r/LF92t5sq74bgfOU9b0W32t73Nkq+L7hdfve70v4FeMBzMnAP7tbgBwd1wjvBooab0LUQj/gCQo1shYMUJxZ3oWgzrnGOf9DjH7deTGXNQ7+SvOTJdLYJNBTyIV715TCnpcxnrnIuRxGnOM/5J3f/znPwrVznKD+0qpV5aywSvejpO7qFk36BoAsMpcLm49OhLj+px5zqFLD61Ztuc7Bj4RQ1H6Q6xT72rJ9x64eQXwhYjslqsr3tzH672Ysqd58PHeV3x/u13Qh3FESine60qS0DL/hwE37vUt3f3KF6SsY3Xt165wUeEE8BuuM625a/PL2/WHgVwIHzE/D8xDu89FWSHd6Q/4IZUC8B1f+7BqFX3Ou7HXvZ0764wIVj7nXv9ov3/guEsb24YTB84ufd+O1Qvken2HznD17kx9eD9FVaxOpb3/HYj355i4li738f89Bnx/YpT2Dzn3/0Ds++Hdbf1Qy6//3+jr/4x2/e/xLcH/8IR3DyVwf0t2hx9X8AKHECuH/851whgIAJuHELqH4NSDAb9QEQGIEmB2fukIHhdwutl0m7d2qVEoLj5zoeqIHmNoDVYILNhYIuuGEjyDulVwQpKG0YGIMyWHyb9g83eHI5aEcz+EYsSAg/SD4wCEZDCEZFWAhHeEIk9YQq2D41yARSOGtRqINHtoSaU4U8YABZmF1J+EZcyDlNKAcnFYZs1gFXuGI8SINniIYRpIYGGIS0g3XPp2fzYFZjmFZ9mEVlyIF7yDF0SFuFCIhvuDpeCASM9YfTd4iImIdEmA+Z5Yj1ZoezFohSpg+kZYmfh4mZmIhdGId6AFueOP91oBiKkrg5tmMACKANKnaKf5eKqnh9iih1r0gNqiaLisSLkWiLduR1ApCL0rB0vvh4tPhCmnhiVUWMzNB6x+h0kLhEy9g6wqgvzmgMIRiNZZeM1CiKZ2Zq+ZKNxGCC3PiBbKiFSgiOfdOKAkOOveCC5ziB6WhD1Xhf1/gv8GgLMTiPK+iNJ3SP65WPALOPtKCD/thxABmQ7ChjfrcvBskKWpiQVDiNSCiQQeOOCRORqqCOFDk+H0mGDcmM4kgwHEkK6jiHC4mDIAhvGPlLD1mQ8chQFsmS9eiSI/lgMRkwJxkKKRlLK9lDNUmFL6lMBLkwPckJPwmULQl7QXmROYn/jztpkrWwlEx5kzZ5EFZJg0VJTUdZMUlpCVupkk3Za0/ZQ115WSVpMWFJCWNJllgplGeJllE5XV+JMW35CG8Jl1pZkXNJl6uok2uZMXnZCHvJlxvQhhQTkpCWluUzlRRTmIZwmIipdD1YljWEh8BojZAJlqlAmZWZAYoJWUOJk4GZTndpMpI5CKAZmhgwmlhTmqa5mbWUmiezmn7Qmq5ZdboplZhpc455V52pMbjJB73JmGmDnCAZnIQ1mDNTnKXYNLIZjnH5c8w5UsNJMtBZB715lX0ZjH9pbtdJk9lZMts5B93pnYmZnkYZnuJZl31lmz9znm7AnrspafYZn+75/56neVzliTL0yQb5qZwZOZ0iN54Go5FpE6BqkJ/3WQGKSaAfhKADJZ9Lw6Bk4KAPGnYaalUGmpkUenUWyjQYKgYdKqEr9ZtaF6LB9Wh+U6Jg0KEbOgE/iKL2CJ/1NKJWA6NbIKMzKgEpaKM32p9q6aKIw6NZ4KM/2hBKGpv7eaA4KpzOuTZIegVNKqQe+qRQSqRENaVzU6VV0KRLen9Yimwsqks6SqWTWaBa+pgqOnRnqp4bUIBhA6ZQIKZyKpp4iqZtCqJRClP/WaeEsKdjSqhl2m1nqqCzY6dNQKiFyqZvqnMsqqi0w6hL4KiPCpORKql/ilppmjiWmgSYmqntuf+pnMqlzWmk0BOqRzCqpOqVfWqdnVqhgfo3rFoErvqqimWqFjaelKo9tzoEuaqrblqd8nWdv7o9wRoEw0qsY/WhcDqrLapp/rOsP9CszqpWsfp2wZms7GOtPYCt2YqdvIprjumt7QOuOyCu49pZxjp9aYmu9aOuOcCu7Zqg0Nqr0kp+tbqocrhh+epV5dpqRSmv/0OvNmCvefqaVnmosoqq+uSl9oOwNKCwC8ub5Dmwx7qvSwp8UUSxMmCxF4ufpLmtkaSZ4LeYnzqxayCyIwuhCBmw5iqtBmtCIPsCLvuyHEqrGjts1VizLnSzLZCzOkuj2yiz/rWMQFtDQrsCRFv/tEBqjEibtH+6tDzUtCnwtFDLpNk0tVQLsfwqsUOEtSegtVurXA6rdmVotR8bBmZ7to3otQQLn2yLRWRLAm8Lt3rbgCiLfk4qtmd0tyKQt3Cbtic7hHXrRoILAoR7tnLbbDOYuHW0uB7QuFtrsnOLqpLLR5TLAZZ7ud9ZgVpFm/yyuYPUuRrwuaCrp6IbWKTLp4CrSqiLAaq7uiTbuhxDdqaLSbNrAbVru0aLu66bsgKrqmnVuxTwu8ALm8uZiLtLS8grAcq7uszbvKv4vL4UvdM7uu+Ku30Lf2FrvKeFvNs7AHlZvda7mdjbTb07veY7AujLkM+3vug0u8r7viQQ/7/fmHf0S0+o+7v463/bK5LM1r/81Lm1G8AmoL9ShFYGbFCUq7oKHBADLITM9cAQtbifO8FJVsFdWFMY7FGCa7kcnAIMTMDkFcIqdbeNW8IqcMLruFUqbFNkS7guvAIwzIqJubL8h7V5e8M+5sGI870lQKfj17RvC8QtkMOcswJG3MNEYLZK7AJMTEgq8MQNeLNaO8WtIMTtmAJYXIEg+7RczHxevIUnEMaiS7FEW8YxUMWkk8bCy5aM2DduvA9nvIMkoMbCS68ue8czAMdoPAJ8PMfqKrKATAOCLIKEPMcbA64Wm8i4l8et08iO/Mg8oLCSzHo3JgKFfMnjuK5qs//JN7DItTN5oKydOsCupIwDpiw2/ZrK/nKr4trKOfDKtRS7snwwrIqttkxtlLxe4rvLmJywX/PLO4DLwswBn0zM/WKpw4rMPKDM08XMziwzjJqr0lwPwaxbc3rNz1mxVbPNPkDNvqMBzQzO+jgDo0rOv9bNrZUB6azO6xwDmOrO+QXPTFdK9NwzSOqo+FwK+ow8/NzP/gwDhBrQQmDO/TROBj2fOJs0Cj0FA31TiffQED20QTPRqfa1G2cAIB3SIj3SJF3SJn3SKJ3SKr3SLN3SLv3SMB3TMm3SLiCmHG2DFW03TtKkN20EDG0zO+0zPd1pOV1PQV0zQ/0ORW1VRz3/M0mdBD+dVE0dM09dXUsNOFN9MlW9BFHN1EjioFtthVd9UVlNMmHdBF2N1V+NMmftBGldY2ttMm3NW2ONWmWdMXPNZ3WNNYmJAH7914Ad2II92IRd2IZ92Iid2IqN2PxYMnkdBW8NWXE6OY9tomYdvflMeJMdOZVt2RvT2VIQ2XzNsdAD2m772ZhN0aS32Ydj2qeN16nd0Q/7uhDk2q99MbYtZ3v9YQqoRLkdoxjz27otaqxdN8L9BXt53MPdcsU9N8rdoxbz3Mu9pbTtP9KtBWN53dPtcM2dNtqdpBTz3dutb90NNuKNBVZ53uPNn9XNPuptpQvz3uuNQeVtNfJt/wU/ed/zPaTtvT36HaYJ89/7TZSkTdmxjd4II+BXINo0VeCcfeAIbjAKjgWiTcQB+D8TLgU6mOEUvtQW3tvWDeHgTTAcPlr07eB/U+JR4IIqbuL8Tbzk0+J3OjAy7uIEDrarU+NPEII6buNQieOi0+NO0HpC7uNEVN89U+SNCjBKbuSNieJr0+RMoGpS7uTKCOXeLeKezS9VrgXU/OESOD5dfqn9MuZeTslgvoHHrOVjQFpm/mV5nOb+zeZtvi9v/gWvLOfRc+dKwFh8juderOfH8+eimi+EDuhXDuR+c+hIYFaMjugNjOVM8+itKgCUDul3iOQjc+lGUACcjukoDP/jQU7nAkrqj8DEgs46n+7TQ5HDqT46q24fMPzqmxPr+nHCtG7g8iLWMdzfdGPrBqK/uZ44wM4g8TvsrW3qwYK+yL7oym4s1dvsxv3sy8K80u7c1A4tsHnto5zt1TKa3B42xe4kEarpEu7t49KG4X414+4lV7ju44zu8iKF8D7p8r7rT1jvStPudnKE+r7R977rwctj5v4v/F4oN/jvQh3wAg+zjKzoNHPwlOKBCh/xDN/wGAtKBa8vEj8qEFjxVH3xGM+6lSzpE9PxsvJ/IC/XIj/y6wnLJh/gLe/yL5/LMX8wKF/trrryqE3z4TWqPA/bPn/qmBr0uD3zQ4+5cA3/8UKf9JMwfEYf3kjv9CCQe1Ef31NP9VWPp1cv81qfXGLa9Tif9V//gFe62Tk/9IEn9iRO9mUPvz7K9gKT9lTPdnLP5G7/9gK8z0yf4Hmv93tP0DePL3Sv90F391z+94BPwdSEoIW/+Fxr0TH/+JAf+U1znZRf+ZafMsyZ+Zq/+UaN5Z7/+aDv1X1v8IpP+kHM+Sg++qoftVLt4K7/+rA/VkU5+7Rf+9zzkrif+7qv1qdv6Knv+2a8+/va+8Q/8It5j8if/MpP1rPa/M7//AyzjNI//dRv1396/dif/aMN8dzf/d4/hV4v/phV/fAZ/ua/s9qP4+q//uz//b5O+MMP/P+3jJAz+P727/BuiKr6DwFLTlrtxVlv3v0HQ3EkS/NE0yspBPeF4WJDYhseEHXne/8HBoVDYtF4DLFutpmmtozlkFNq1XrFZrXbnhLqamaeX4GUe0an1Wt2O+uFhjFjqNl9x+f1e/4WfpO7oLux6zM8RExUXFz4iwm0GIzSYay0vMTMFHJ8gayQfCnUHCUtNSXlFPCkAC2jPIWNlZ2941ydABWl3eXt9Q1yvJWQ1P01PkZOzvgTXhgsVo6Wnp6Fa6aDptbe5mb0ug597R4nL99TAnc1X2dvR2MBz3afp6/vMqCRt9/n71dBEOdP4ECCBQ0eRJhQ4UKGDe1FAAA7;" parent="LHtPzqZPA2eFAMqI0sIO-31" vertex="1">
          <mxGeometry x="9.469999999999999" y="10" width="61.06" height="60" as="geometry" />
        </mxCell>
        <mxCell id="LHtPzqZPA2eFAMqI0sIO-32" value="S3 bucket" style="rounded=1;whiteSpace=wrap;html=1;" parent="1" vertex="1">
          <mxGeometry x="259.5" y="240" width="80" height="30" as="geometry" />
        </mxCell>
        <mxCell id="LHtPzqZPA2eFAMqI0sIO-33" value="" style="endArrow=classic;html=1;rounded=0;entryX=0.5;entryY=1;entryDx=0;entryDy=0;" parent="1" target="LHtPzqZPA2eFAMqI0sIO-32" edge="1">
          <mxGeometry width="50" height="50" relative="1" as="geometry">
            <mxPoint x="299.26" y="330" as="sourcePoint" />
            <mxPoint x="299.26" y="260" as="targetPoint" />
          </mxGeometry>
        </mxCell>
        <mxCell id="rI0U8YLZJtLzUAYgh3IJ-1" value="" style="endArrow=classic;html=1;rounded=0;" edge="1" parent="1">
          <mxGeometry width="50" height="50" relative="1" as="geometry">
            <mxPoint x="320" y="349" as="sourcePoint" />
            <mxPoint x="440" y="348.66" as="targetPoint" />
          </mxGeometry>
        </mxCell>
        <mxCell id="rI0U8YLZJtLzUAYgh3IJ-3" value="S3" style="shape=cylinder3;whiteSpace=wrap;html=1;boundedLbl=1;backgroundOutline=1;size=15;fontSize=12;verticalAlign=top;" vertex="1" parent="1">
          <mxGeometry x="240" y="480" width="119" height="130" as="geometry" />
        </mxCell>
        <mxCell id="rI0U8YLZJtLzUAYgh3IJ-4" value="HPC&lt;div&gt;Cluster&lt;/div&gt;" style="whiteSpace=wrap;html=1;aspect=fixed;verticalAlign=bottom;" vertex="1" parent="1">
          <mxGeometry x="390" y="600" width="160" height="160" as="geometry" />
        </mxCell>
        <mxCell id="rI0U8YLZJtLzUAYgh3IJ-5" value="User" style="shape=umlActor;verticalLabelPosition=bottom;verticalAlign=top;html=1;outlineConnect=0;" vertex="1" parent="1">
          <mxGeometry x="50" y="660" width="30" height="60" as="geometry" />
        </mxCell>
        <mxCell id="rI0U8YLZJtLzUAYgh3IJ-6" value="" style="endArrow=classic;html=1;rounded=0;entryX=0;entryY=0.75;entryDx=0;entryDy=0;" edge="1" parent="1">
          <mxGeometry width="50" height="50" relative="1" as="geometry">
            <mxPoint x="120" y="660" as="sourcePoint" />
            <mxPoint x="240" y="659.9999999999999" as="targetPoint" />
          </mxGeometry>
        </mxCell>
        <mxCell id="rI0U8YLZJtLzUAYgh3IJ-7" value="" style="endArrow=classic;html=1;rounded=0;exitX=0;exitY=0.25;exitDx=0;exitDy=0;" edge="1" parent="1">
          <mxGeometry width="50" height="50" relative="1" as="geometry">
            <mxPoint x="240" y="679.6599999999999" as="sourcePoint" />
            <mxPoint x="120" y="679.66" as="targetPoint" />
          </mxGeometry>
        </mxCell>
        <mxCell id="rI0U8YLZJtLzUAYgh3IJ-8" value="" style="endArrow=none;html=1;rounded=0;entryX=0;entryY=0.5;entryDx=0;entryDy=0;startArrow=classic;startFill=1;" edge="1" parent="1" target="rI0U8YLZJtLzUAYgh3IJ-23">
          <mxGeometry width="50" height="50" relative="1" as="geometry">
            <mxPoint x="120" y="720" as="sourcePoint" />
            <mxPoint x="240" y="520" as="targetPoint" />
            <Array as="points">
              <mxPoint x="190" y="720" />
              <mxPoint x="190" y="575" />
            </Array>
          </mxGeometry>
        </mxCell>
        <mxCell id="rI0U8YLZJtLzUAYgh3IJ-9" value="" style="endArrow=none;html=1;rounded=0;entryX=0.5;entryY=0;entryDx=0;entryDy=0;startArrow=classic;startFill=1;" edge="1" parent="1" target="rI0U8YLZJtLzUAYgh3IJ-11">
          <mxGeometry width="50" height="50" relative="1" as="geometry">
            <mxPoint x="340" y="570" as="sourcePoint" />
            <mxPoint x="470" y="620" as="targetPoint" />
            <Array as="points">
              <mxPoint x="470" y="570" />
            </Array>
          </mxGeometry>
        </mxCell>
        <mxCell id="rI0U8YLZJtLzUAYgh3IJ-10" value="Storage" style="shape=cylinder3;whiteSpace=wrap;html=1;boundedLbl=1;backgroundOutline=1;size=15;fontSize=12;" vertex="1" parent="1">
          <mxGeometry x="600" y="600" width="120" height="160" as="geometry" />
        </mxCell>
        <mxCell id="rI0U8YLZJtLzUAYgh3IJ-11" value="data transfer job" style="ellipse;whiteSpace=wrap;html=1;aspect=fixed;" vertex="1" parent="1">
          <mxGeometry x="440" y="650" width="60" height="60" as="geometry" />
        </mxCell>
        <mxCell id="rI0U8YLZJtLzUAYgh3IJ-12" value="" style="endArrow=none;html=1;rounded=0;startArrow=classic;startFill=1;" edge="1" parent="1">
          <mxGeometry width="50" height="50" relative="1" as="geometry">
            <mxPoint x="500" y="679.76" as="sourcePoint" />
            <mxPoint x="600" y="679.76" as="targetPoint" />
          </mxGeometry>
        </mxCell>
        <mxCell id="rI0U8YLZJtLzUAYgh3IJ-13" value="1" style="ellipse;whiteSpace=wrap;html=1;aspect=fixed;fontSize=10;" vertex="1" parent="1">
          <mxGeometry x="100" y="653" width="14" height="14" as="geometry" />
        </mxCell>
        <mxCell id="rI0U8YLZJtLzUAYgh3IJ-14" value="3" style="ellipse;whiteSpace=wrap;html=1;aspect=fixed;fontSize=10;" vertex="1" parent="1">
          <mxGeometry x="330" y="659" width="14" height="14" as="geometry" />
        </mxCell>
        <mxCell id="rI0U8YLZJtLzUAYgh3IJ-15" value="2" style="ellipse;whiteSpace=wrap;html=1;aspect=fixed;fontSize=10;" vertex="1" parent="1">
          <mxGeometry x="306" y="626" width="14" height="14" as="geometry" />
        </mxCell>
        <mxCell id="rI0U8YLZJtLzUAYgh3IJ-16" value="3" style="ellipse;whiteSpace=wrap;html=1;aspect=fixed;fontSize=10;" vertex="1" parent="1">
          <mxGeometry x="100" y="673" width="14" height="14" as="geometry" />
        </mxCell>
        <mxCell id="rI0U8YLZJtLzUAYgh3IJ-17" value="5" style="ellipse;whiteSpace=wrap;html=1;aspect=fixed;fontSize=10;" vertex="1" parent="1">
          <mxGeometry x="100" y="713" width="14" height="14" as="geometry" />
        </mxCell>
        <mxCell id="rI0U8YLZJtLzUAYgh3IJ-20" value="" style="group" vertex="1" connectable="0" parent="1">
          <mxGeometry x="240" y="649" width="80" height="80" as="geometry" />
        </mxCell>
        <mxCell id="rI0U8YLZJtLzUAYgh3IJ-21" value="" style="whiteSpace=wrap;html=1;aspect=fixed;" vertex="1" parent="rI0U8YLZJtLzUAYgh3IJ-20">
          <mxGeometry width="80" height="80" as="geometry" />
        </mxCell>
        <mxCell id="rI0U8YLZJtLzUAYgh3IJ-22" value="" style="shape=image;verticalLabelPosition=bottom;labelBackgroundColor=default;verticalAlign=top;aspect=fixed;imageAspect=0;image=data:image/gif,R0lGODdhBQL8AbMAAAAAAOxnGXl6eoKDg/GPVZeXl7m5ufrXwtzd3ff29v///wAAAAAAAAAAAAAAAAAAACH5BAkAAAsALAAAAAAFAvwBAAT/cMlJq7046827/2AojmRpnmiqrmzrvnAsz3Rt33iu73zv/8CgcEgsGo/IpHLJbDqf0OgwIa1ar9isFkY4bL/gsHjcJAS85LR6zW6fzGe3fE6vi+Fxu37P7wvxeX6Cg4SFbwGIiGiGjI2OjICKj5OUlXKRkpaam5xWmJmdoaKjQQmfoKSpqqsvpomviYuss7S1Hq6wsLK2vL21uLmvu77ExZ3AwbHGy8yVyMmozdLTfM/QgdTZ2m3W18Pb4OFZ3d7i5udV5OXo7O1I6uvu8vM98PH0+Pky9vf6/v8n+PUDSLAgB4EDDSpcuABhQoYQ/Tl8GLGivIkULWo0hzHjxo/Z/zp6BEly2YFT11J+K8nS2IGUMJOtbEnT1suYOIXV3OnrZs6fM3kKDeXzZ86gQ5NWKmoUJ1KlUBkxbRrzadSrfqZShWkVq9c6Wreq/Ep2UFixI8uqTXMWLbSua+NuaetWpty7a+jWDQYXr18nevfm6vu3MJLAgnUZXlwFcWKdjCM3cfxYmeTLhys3JYy58wzKmqN5Hq0DdGhspFPbMH2as+rXI1i3hk0bhuzZtXOruI1bt28SvHv/Hu4huHDiyDEYP568uYTlzJ0jhx5d+m/q1a3nxp5dO2zu3b2nBh9evGfy5c1fRp9ePWP27d0Xhh9fPl769e3HxZ9ff1n+/fnnFf+AAQoYFUqnaeaagUohmGBlCzIolIMPPhahhDVRWGFiF2LIkoYbCtahhyCBGOJeI5KokYkn1pWiihGx2KJbL8K4kIwzolWjjQXhmKNYO/L4j48/bhWkkPkQWSRVRyI5j5JLbubkTlBGaVSTU6JTpZVAZfkhly1i6SU4W4J51JgflWmmU2iuuGaYbUYk0ptGxsnQnHQyaadCeOYp5Z4E9ennlYACJOigXRaqz6GInqkoPow2yuaj80QqaVWUXqTmpZhmyo6lnHLlKTqghjrWqOKUampaqBKj6qpvtbrNq7DaJSs1tNbK163T5KrrYLw24+uvigVrzLDEQmasL8gma9n/srw066xo0K5C4LSoVavKtdiKqS0d3Hb7rbXY/ujtuGyEW+656LJVbpHstiuGuuvig4AA+Oar77789uvvvwAHLPDABBds8MEIJ6xwwgVQ0QG94tq78MQUV2zxxRhnrHG+DRf3rrn63LvxyCSXbPLJI3f88Mc5xquKyCjHLPPMNJusMgcQT+vyyzX37PPPQAN88wY5O7szz0EnrfTSJQ+9AcszHo0001RXbXXBTj8NdYhST33112BfnbXWWz/Ytddhp622z2OTXXZoZ6O99tx0k9y2229buBDMdfftd8V34503igzx/ffhiA8cuOCD6wiR4YlHLjm+izPeuJ6PT665/+SVW355oplvLrrfnXv+eacRQT766l+XbvrprIbM+uxgu/467LtqpDrtvP9s++24J9LFR7v3brzMvwMfPAEOb1T88dDb3bwKwcPEPEnPR6/9xclzUP0112O//fgpT7/C98mELz757FvcfQfo56L++u3Xz7D5LMT/yvz02++/4vjLn/4CwL/+/e+A/XrfBwZYQAMi8IECUOAC49dAB0LwfxKc4PcqaMEL1i+DGlxeAFmSPQ9qD4QhhB0HS1JCEx4PhSn83ApZ6EL7wTCGjZshDWvIvhviMG863CEPt+fDH5YtiEIcIvSKaESoITGJSuwdE5v4sSdCMYqzmyIVy2XFK/9icXRa3OK0CFCWFn7xcGEUY7LIWMYzsi6NavwVG9voRtHBMY61miMd6zi5O+JxVXrcIx8T58c/hiqQghzk3wppyEshMpGKrBsjG9moR0IykmubJCUHZclLYjJsmtxknjp5AQOEchtm/KTSTukBLoLAAJQbYQdVWTVWtnKMr9SXLaWRSlqyTZZCwOUHYLmvXTKjl76kmTHht8ZcJhCYFkFmMmO2TGbK0Zn+qqYvpDlNm0FzCMQipQWIKbRvFq6bTNOmNWElzgqQM2DqrAU30amxeHovj9gEoBfpOTN73nNVfXknwfwpN34iz5xFgFVAFUZQUszToBNr6AY2VaGFLkz/ooZIgAE28FCI3s8TobJoRBEajgQUoAAc9ehBr0DR+gj0oiTVhkkjmFKVngyjHGipgvIJuJj2qgCUq6lNpZcFneptmBvDqR1mGlQNdHSo5dSCUUXEU4wpdQ5MbWoGngrVZ25hqi6qasauyg2g6lKoXXWfT5MAVsch9aZrjZZZz+rUtHIvrkhoa53eijKykiGrdN2qXXsaBr3+yQMv9eas5lpMtA4WYX71gGFB14HEwjUkjG1sXR/70Tu8SaQ1i+w4MqtZwXL2YKKV7JpA27PUpoO0pcUAV4fq2g5MVlR8BVptnwDYbDr2tFFNw21jtwDLthavmuitbzcLXHgitwxc/2Jt0narBOUu17TN/Rd1bWsl6a7yuY6w7nVlm13tghe6S/Lu0rZLBPGO9wKz5Sd7uQsvsVJtvkBw73stEF904jen9c1t7c7rB/3utwL9neZ/Adwy+4qNwHsw8IEpkGBfLpjBcBKw2i5sAwlPeAIVViWHJxo1B4MSwliF7UB/e9oRk/hE6s0kissaURY/1sUv3lCM54ZjFnhYaDa2a481MNkd023IKPgxkJnb4hlHwbBGlqSTw6DkJWOXs0gmckVNvMgpb6HKViZvk/3Q1ih3mRFgDjN8x0zmBJkZjV62QprVzF8sx/nJLpXinaEwZzoj+MZ7hoJR3xy5LGugz36m8P9gDU3foyI2eoy2AKITDWIhBxrPjq4sES99hElTWgIhVmKkG004Db+Q0+1VsfuCTM9RkxotVjSu8RjtaXiyupuufvVWYm1DVP+g1rZmMkRzreum8Np/QwZ2sK9sUGIX+yfHxqCvdaDsZYt52NOWApSifcARV9vaa8Z2JZTEbQRe+NvgrnOzs10FIpX7gf9Fd7r/LF92t5sq74bgfOU9b0W32t73Nkq+L7hdfve70v4FeMBzMnAP7tbgBwd1wjvBooab0LUQj/gCQo1shYMUJxZ3oWgzrnGOf9DjH7deTGXNQ7+SvOTJdLYJNBTyIV715TCnpcxnrnIuRxGnOM/5J3f/znPwrVznKD+0qpV5aywSvejpO7qFk36BoAsMpcLm49OhLj+px5zqFLD61Ztuc7Bj4RQ1H6Q6xT72rJ9x64eQXwhYjslqsr3tzH672Ysqd58PHeV3x/u13Qh3FESine60qS0DL/hwE37vUt3f3KF6SsY3Xt165wUeEE8BuuM625a/PL2/WHgVwIHzE/D8xDu89FWSHd6Q/4IZUC8B1f+7BqFX3Ou7HXvZ0764wIVj7nXv9ov3/guEsb24YTB84ufd+O1Qvken2HznD17kx9eD9FVaxOpb3/HYj355i4li738f89Bnx/YpT2Dzn3/0Ds++Hdbf1Qy6//3+jr/4x2/e/xLcH/8IR3DyVwf0t2hx9X8AKHECuH/851whgIAJuHELqH4NSDAb9QEQGIEmB2fukIHhdwutl0m7d2qVEoLj5zoeqIHmNoDVYILNhYIuuGEjyDulVwQpKG0YGIMyWHyb9g83eHI5aEcz+EYsSAg/SD4wCEZDCEZFWAhHeEIk9YQq2D41yARSOGtRqINHtoSaU4U8YABZmF1J+EZcyDlNKAcnFYZs1gFXuGI8SINniIYRpIYGGIS0g3XPp2fzYFZjmFZ9mEVlyIF7yDF0SFuFCIhvuDpeCASM9YfTd4iImIdEmA+Z5Yj1ZoezFohSpg+kZYmfh4mZmIhdGId6AFueOP91oBiKkrg5tmMACKANKnaKf5eKqnh9iih1r0gNqiaLisSLkWiLduR1ApCL0rB0vvh4tPhCmnhiVUWMzNB6x+h0kLhEy9g6wqgvzmgMIRiNZZeM1CiKZ2Zq+ZKNxGCC3PiBbKiFSgiOfdOKAkOOveCC5ziB6WhD1Xhf1/gv8GgLMTiPK+iNJ3SP65WPALOPtKCD/thxABmQ7ChjfrcvBskKWpiQVDiNSCiQQeOOCRORqqCOFDk+H0mGDcmM4kgwHEkK6jiHC4mDIAhvGPlLD1mQ8chQFsmS9eiSI/lgMRkwJxkKKRlLK9lDNUmFL6lMBLkwPckJPwmULQl7QXmROYn/jztpkrWwlEx5kzZ5EFZJg0VJTUdZMUlpCVupkk3Za0/ZQ115WSVpMWFJCWNJllgplGeJllE5XV+JMW35CG8Jl1pZkXNJl6uok2uZMXnZCHvJlxvQhhQTkpCWluUzlRRTmIZwmIipdD1YljWEh8BojZAJlqlAmZWZAYoJWUOJk4GZTndpMpI5CKAZmhgwmlhTmqa5mbWUmiezmn7Qmq5ZdboplZhpc455V52pMbjJB73JmGmDnCAZnIQ1mDNTnKXYNLIZjnH5c8w5UsNJMtBZB715lX0ZjH9pbtdJk9lZMts5B93pnYmZnkYZnuJZl31lmz9znm7AnrspafYZn+75/56neVzliTL0yQb5qZwZOZ0iN54Go5FpE6BqkJ/3WQGKSaAfhKADJZ9Lw6Bk4KAPGnYaalUGmpkUenUWyjQYKgYdKqEr9ZtaF6LB9Wh+U6Jg0KEbOgE/iKL2CJ/1NKJWA6NbIKMzKgEpaKM32p9q6aKIw6NZ4KM/2hBKGpv7eaA4KpzOuTZIegVNKqQe+qRQSqRENaVzU6VV0KRLen9Yimwsqks6SqWTWaBa+pgqOnRnqp4bUIBhA6ZQIKZyKpp4iqZtCqJRClP/WaeEsKdjSqhl2m1nqqCzY6dNQKiFyqZvqnMsqqi0w6hL4KiPCpORKql/ilppmjiWmgSYmqntuf+pnMqlzWmk0BOqRzCqpOqVfWqdnVqhgfo3rFoErvqqimWqFjaelKo9tzoEuaqrblqd8nWdv7o9wRoEw0qsY/WhcDqrLapp/rOsP9CszqpWsfp2wZms7GOtPYCt2YqdvIprjumt7QOuOyCu49pZxjp9aYmu9aOuOcCu7Zqg0Nqr0kp+tbqocrhh+epV5dpqRSmv/0OvNmCvefqaVnmosoqq+uSl9oOwNKCwC8ub5Dmwx7qvSwp8UUSxMmCxF4ufpLmtkaSZ4LeYnzqxayCyIwuhCBmw5iqtBmtCIPsCLvuyHEqrGjts1VizLnSzLZCzOkuj2yiz/rWMQFtDQrsCRFv/tEBqjEibtH+6tDzUtCnwtFDLpNk0tVQLsfwqsUOEtSegtVurXA6rdmVotR8bBmZ7to3otQQLn2yLRWRLAm8Lt3rbgCiLfk4qtmd0tyKQt3Cbtic7hHXrRoILAoR7tnLbbDOYuHW0uB7QuFtrsnOLqpLLR5TLAZZ7ud9ZgVpFm/yyuYPUuRrwuaCrp6IbWKTLp4CrSqiLAaq7uiTbuhxDdqaLSbNrAbVru0aLu66bsgKrqmnVuxTwu8ALm8uZiLtLS8grAcq7uszbvKv4vL4UvdM7uu+Ku30Lf2FrvKeFvNs7AHlZvda7mdjbTb07veY7AujLkM+3vug0u8r7viQQ/7/fmHf0S0+o+7v463/bK5LM1r/81Lm1G8AmoL9ShFYGbFCUq7oKHBADLITM9cAQtbifO8FJVsFdWFMY7FGCa7kcnAIMTMDkFcIqdbeNW8IqcMLruFUqbFNkS7guvAIwzIqJubL8h7V5e8M+5sGI870lQKfj17RvC8QtkMOcswJG3MNEYLZK7AJMTEgq8MQNeLNaO8WtIMTtmAJYXIEg+7RczHxevIUnEMaiS7FEW8YxUMWkk8bCy5aM2DduvA9nvIMkoMbCS68ue8czAMdoPAJ8PMfqKrKATAOCLIKEPMcbA64Wm8i4l8et08iO/Mg8oLCSzHo3JgKFfMnjuK5qs//JN7DItTN5oKydOsCupIwDpiw2/ZrK/nKr4trKOfDKtRS7snwwrIqttkxtlLxe4rvLmJywX/PLO4DLwswBn0zM/WKpw4rMPKDM08XMziwzjJqr0lwPwaxbc3rNz1mxVbPNPkDNvqMBzQzO+jgDo0rOv9bNrZUB6azO6xwDmOrO+QXPTFdK9NwzSOqo+FwK+ow8/NzP/gwDhBrQQmDO/TROBj2fOJs0Cj0FA31TiffQED20QTPRqfa1G2cAIB3SIj3SJF3SJn3SKJ3SKr3SLN3SLv3SMB3TMm3SLiCmHG2DFW03TtKkN20EDG0zO+0zPd1pOV1PQV0zQ/0ORW1VRz3/M0mdBD+dVE0dM09dXUsNOFN9MlW9BFHN1EjioFtthVd9UVlNMmHdBF2N1V+NMmftBGldY2ttMm3NW2ONWmWdMXPNZ3WNNYmJAH7914Ad2II92IRd2IZ92Iid2IqN2PxYMnkdBW8NWXE6OY9tomYdvflMeJMdOZVt2RvT2VIQ2XzNsdAD2m772ZhN0aS32Ydj2qeN16nd0Q/7uhDk2q99MbYtZ3v9YQqoRLkdoxjz27otaqxdN8L9BXt53MPdcsU9N8rdoxbz3Mu9pbTtP9KtBWN53dPtcM2dNtqdpBTz3dutb90NNuKNBVZ53uPNn9XNPuptpQvz3uuNQeVtNfJt/wU/ed/zPaTtvT36HaYJ89/7TZSkTdmxjd4II+BXINo0VeCcfeAIbjAKjgWiTcQB+D8TLgU6mOEUvtQW3tvWDeHgTTAcPlr07eB/U+JR4IIqbuL8Tbzk0+J3OjAy7uIEDrarU+NPEII6buNQieOi0+NO0HpC7uNEVN89U+SNCjBKbuSNieJr0+RMoGpS7uTKCOXeLeKezS9VrgXU/OESOD5dfqn9MuZeTslgvoHHrOVjQFpm/mV5nOb+zeZtvi9v/gWvLOfRc+dKwFh8juderOfH8+eimi+EDuhXDuR+c+hIYFaMjugNjOVM8+itKgCUDul3iOQjc+lGUACcjukoDP/jQU7nAkrqj8DEgs46n+7TQ5HDqT46q24fMPzqmxPr+nHCtG7g8iLWMdzfdGPrBqK/uZ44wM4g8TvsrW3qwYK+yL7oym4s1dvsxv3sy8K80u7c1A4tsHnto5zt1TKa3B42xe4kEarpEu7t49KG4X414+4lV7ju44zu8iKF8D7p8r7rT1jvStPudnKE+r7R977rwctj5v4v/F4oN/jvQh3wAg+zjKzoNHPwlOKBCh/xDN/wGAtKBa8vEj8qEFjxVH3xGM+6lSzpE9PxsvJ/IC/XIj/y6wnLJh/gLe/yL5/LMX8wKF/trrryqE3z4TWqPA/bPn/qmBr0uD3zQ4+5cA3/8UKf9JMwfEYf3kjv9CCQe1Ef31NP9VWPp1cv81qfXGLa9Tif9V//gFe62Tk/9IEn9iRO9mUPvz7K9gKT9lTPdnLP5G7/9gK8z0yf4Hmv93tP0DePL3Sv90F391z+94BPwdSEoIW/+Fxr0TH/+JAf+U1znZRf+ZafMsyZ+Zq/+UaN5Z7/+aDv1X1v8IpP+kHM+Sg++qoftVLt4K7/+rA/VkU5+7Rf+9zzkrif+7qv1qdv6Knv+2a8+/va+8Q/8It5j8if/MpP1rPa/M7//AyzjNI//dRv1396/dif/aMN8dzf/d4/hV4v/phV/fAZ/ua/s9qP4+q//uz//b5O+MMP/P+3jJAz+P727/BuiKr6DwFLTlrtxVlv3v0HQ3EkS/NE0yspBPeF4WJDYhseEHXne/8HBoVDYtF4DLFutpmmtozlkFNq1XrFZrXbnhLqamaeX4GUe0an1Wt2O+uFhjFjqNl9x+f1e/4WfpO7oLux6zM8RExUXFz4iwm0GIzSYay0vMTMFHJ8gayQfCnUHCUtNSXlFPCkAC2jPIWNlZ2941ydABWl3eXt9Q1yvJWQ1P01PkZOzvgTXhgsVo6Wnp6Fa6aDptbe5mb0ug597R4nL99TAnc1X2dvR2MBz3afp6/vMqCRt9/n71dBEOdP4ECCBQ0eRJhQ4UKGDe1FAAA7;" vertex="1" parent="rI0U8YLZJtLzUAYgh3IJ-20">
          <mxGeometry x="9.469999999999999" y="10" width="61.06" height="60" as="geometry" />
        </mxCell>
        <mxCell id="rI0U8YLZJtLzUAYgh3IJ-23" value="S3 bucket" style="rounded=1;whiteSpace=wrap;html=1;" vertex="1" parent="1">
          <mxGeometry x="259.5" y="560" width="80" height="30" as="geometry" />
        </mxCell>
        <mxCell id="rI0U8YLZJtLzUAYgh3IJ-24" value="" style="endArrow=classic;html=1;rounded=0;entryX=0.5;entryY=1;entryDx=0;entryDy=0;" edge="1" parent="1" target="rI0U8YLZJtLzUAYgh3IJ-23">
          <mxGeometry width="50" height="50" relative="1" as="geometry">
            <mxPoint x="299.26" y="650" as="sourcePoint" />
            <mxPoint x="299.26" y="580" as="targetPoint" />
          </mxGeometry>
        </mxCell>
        <mxCell id="rI0U8YLZJtLzUAYgh3IJ-25" value="" style="endArrow=classic;html=1;rounded=0;" edge="1" parent="1">
          <mxGeometry width="50" height="50" relative="1" as="geometry">
            <mxPoint x="320" y="680" as="sourcePoint" />
            <mxPoint x="440" y="679.6600000000001" as="targetPoint" />
          </mxGeometry>
        </mxCell>
        <mxCell id="rI0U8YLZJtLzUAYgh3IJ-26" value="4" style="ellipse;whiteSpace=wrap;html=1;aspect=fixed;fontSize=10;" vertex="1" parent="1">
          <mxGeometry x="496" y="639" width="14" height="14" as="geometry" />
        </mxCell>
      </root>
    </mxGraphModel>
  </diagram>
</mxfile>
